<svg width="94" height="125" viewBox="0 0 94 125" fill="none" xmlns="http://www.w3.org/2000/svg">
<path d="M1 1.5H75.5L93 19V124H1V1.5Z" fill="white"/>
<path d="M75.5 1.5H1V124H93V19M75.5 1.5L93 19M75.5 1.5V19H93" stroke="black" stroke-width="2"/>
<g clip-path="url(#clip0_103_13)">
<rect x="19.875" y="35.875" width="54.25" height="54.25" fill="#FCE011" stroke="#155FA0" stroke-width="2"/>
<path d="M43.3906 56.6087L19.875 79.625V73.7663L43.3906 50.75L57.5 64.5598L54.5071 67.4891L43.3906 56.6087Z" fill="#155FA0"/>
<path d="M43.2228 45.4112L19.875 69.125V63.0888L43.2228 39.375L62.75 59.2083L59.7785 62.2264L43.2228 45.4112Z" fill="#155FA0"/>
<path d="M43.0932 34.0362L19.875 57.75V51.7138L43.0932 28L68 53.4384L65.045 56.4565L43.0932 34.0362Z" fill="#155FA0"/>
<path d="M54.3434 72.714L74.125 52.5V57.661L54.3434 77.875L40.875 64.1123L43.4003 61.5318L54.3434 72.714Z" fill="#155FA0"/>
<path d="M54.0194 81.6419L74.125 62.125V67.1081L54.0194 86.625L35.625 68.7691L38.1917 66.2775L54.0194 81.6419Z" fill="#155FA0"/>
<path d="M54.1733 91.175L74.125 71.2979V76.3729L54.1733 96.25L31.25 73.4125L33.797 70.875L54.1733 91.175Z" fill="#155FA0"/>
</g>
<defs>
<clipPath id="clip0_103_13">
<rect width="56" height="56" fill="white" transform="translate(19 35)"/>
</clipPath>
</defs>
</svg>
